<svg id="Layer_1" data-name="Layer 1" xmlns="http://www.w3.org/2000/svg" viewBox="0 0 200 200"><path d="M52,200.39H28.52c-5.23-1.8-8.47-5.39-8.43-12.68.18-27,.07-54.08.07-81.13,0-3,0-3-3-3-4.72,0-9-1.15-12.45-4.58A19.12,19.12,0,0,1,.39,91.41V84.77a37,37,0,0,1,2.22-5c8-13.85,16-27.73,24-41.56C33.17,27,47.52,27.06,54,38.32c4.61,8,9.28,16,13.82,24,.89,1.58,1.62,1.87,3.32,1.07a67.51,67.51,0,0,1,39.35-5.8,64.7,64.7,0,0,1,14.31,3.73c1.61.64,2.15.24,2.05-1.43-.07-1,0-2.08,0-3.12,0-3,0-3-2.94-3.14a10,10,0,0,1-1.73-.23c-8-1.82-11.59-10.31-7.41-17.65,5.4-9.5,11-18.91,16.36-28.41a13.33,13.33,0,0,1,8.7-7h4.3a12.3,12.3,0,0,1,8.21,6.09c1.22,2.15,2.51,4.27,3.7,6.43s.75,3.8-.9,4.76-3.34.36-4.56-1.65-2.48-4.28-3.74-6.41a5.25,5.25,0,0,0-4.15-2.88c-2.77-.28-4.52,1.07-5.84,3.37-4.36,7.62-8.78,15.21-13.17,22.83-1.3,2.25-2.69,4.46-3.81,6.8a5.17,5.17,0,0,0,3.79,7.49,26.79,26.79,0,0,0,5.44.26c3,.05,4.14,1.07,4.17,4.09.05,3.84.07,7.68,0,11.52a3.12,3.12,0,0,0,1.78,3.13A67.89,67.89,0,0,1,149,76.85c.42.41.71,1.14,1.73.9V63.16c0-4,0-7.94,0-11.91.05-2.61,1.19-3.7,3.7-3.76,1.43,0,2.87,0,4.29,0,5.28-.35,7.43-4.28,4.83-8.88-2.14-3.79-4.37-7.54-6.5-11.34-1.13-2-.74-3.87.88-4.77s3.4-.33,4.57,1.66q3.55,6.06,7,12.17a10.82,10.82,0,0,1,1.43,7c-.9,6.27-5.31,10.22-11.67,10.4-1.25,0-2.16.18-2.16,1.77,0,10.09,0,20.17,0,30.26A6.07,6.07,0,0,0,162,91.13c5.56.64,9.47,3.58,12.21,8.36,6.61,11.51,13.3,23,19.89,34.5,2.25,3.94,4.94,7.67,6.25,12.1v6.25c-1.48,5.33-4.54,9.3-9.82,11.33a17.41,17.41,0,0,1-7.5.89c-1.88-.12-2.51.55-2.49,2.45.09,7.42,0,14.83,0,22.25a12.5,12.5,0,0,1-.3,3.1c-1.11,4.27-4.1,6.62-8,8H148.83c-4.9-1.6-8-4.74-8.46-10-.18-2.07-.1-4.16-.16-6.23-.06-1.87-.27-2-1.9-1l-1,.62c-19,11.6-39.12,13.93-60.24,6.68A63.78,63.78,0,0,1,62.31,183c-1.18-.79-1.76-.66-1.74.87,0,1.24,0,2.47,0,3.71C60.54,194.67,58.41,197.83,52,200.39ZM26.33,144.77V181.1c0,2.6,0,5.21,0,7.81.11,3.48,1.79,5.16,5.22,5.18q8.69.06,17.38,0c3.61,0,5.17-1.66,5.2-5.32,0-3.32-.06-6.64,0-10a4.47,4.47,0,0,0-1.55-3.58c-1.77-1.72-3.45-3.54-5-5.42a3.12,3.12,0,0,1,.09-4.55c1.42-1.28,3.09-1.12,4.66.46.28.28.53.58.78.88a62.69,62.69,0,0,0,82.81,10.62c3.09-2.12,5-4.32,4.3-8.22a15.82,15.82,0,0,1,0-1.95c-.05-.82.25-1.87-.73-2.25a3,3,0,0,0-3.14.37c-.61.48-1.19,1-1.79,1.5-12.15,9.92-26.05,14-41.55,11.86-30.39-4.13-51-33.42-44.95-63.45,8-39.5,55.63-56.2,86.55-30.37a51.88,51.88,0,0,1,11,12.61c.85,1.37,1.41,1.93,2.46.17a10.18,10.18,0,0,1,3.72-3.68c1.61-.9,1.46-1.76.51-3.07-15.29-21.13-36-30.66-61.71-26.69C48,70.62,25.32,116.61,45.08,154.88a11.29,11.29,0,0,1,1,2.31,2.87,2.87,0,0,1-1.41,3.34,2.76,2.76,0,0,1-3.59-.35,7.92,7.92,0,0,1-1.44-2.07A66.93,66.93,0,0,1,32,117.33c2.7-20.54,12.75-36.75,29.76-48.59,1.37-1,1.59-1.63.73-3.1-4.69-8-9.49-15.88-13.82-24a9.37,9.37,0,0,0-16.8,0c-4,7.59-8.53,14.91-12.82,22.36C15.34,70.4,11.53,76.84,7.88,83.38S8.47,97,15.94,97.13c1.88,0,3.77,0,5.66,0,3.89,0,4.73.82,4.73,4.66Q26.35,123.29,26.33,144.77ZM95.52,78.91A46.28,46.28,0,0,0,82.88,82c-3,1.2-3,1.2-1.72,4.09a3.13,3.13,0,0,1-5.44,3.1,3.51,3.51,0,0,1-.42-.66c-.73-1.86-1.72-1.63-3.08-.56a51.5,51.5,0,0,0-8.64,8.44c-2.12,2.65-2.11,2.66.48,4.68a3.2,3.2,0,0,1,1,4.14A3.17,3.17,0,0,1,61,106.51a13,13,0,0,1-1.74-.89,1.08,1.08,0,0,0-1.72.59,45.5,45.5,0,0,0-3.93,14.43c-.13,1.32.43,1.93,1.78,1.89,1.69,0,3.39,0,5.08,0,2,.08,3.2,1.18,3.33,2.87a3,3,0,0,1-3,3.38c-1.55.18-3.12.11-4.68.14-2.39,0-2.78.43-2.44,2.77A48.72,48.72,0,0,0,56.65,143c1.28,3.11,1.26,3.11,4.33,1.83l.37-.14a2.86,2.86,0,0,1,3.58,1.2,2.9,2.9,0,0,1-.39,3.91A5.36,5.36,0,0,1,63,150.92c-1.38.65-1.4,1.4-.51,2.56a49.41,49.41,0,0,0,8.94,9.22c2.5,2,2.49,2,4.37-.6,1.15-1.57,2.76-2,4.25-1.1a3.15,3.15,0,0,1,1.15,4.25,4.43,4.43,0,0,1-.46.86c-1,1.39-.53,2.12.94,2.74A54.15,54.15,0,0,0,95,172.46c1.62.24,2.29-.37,2.22-2a46.71,46.71,0,0,1,0-4.88c.12-2,1.38-3.36,3.09-3.41s3.13,1.32,3.25,3.44a46.71,46.71,0,0,1,0,4.88c-.08,1.67.66,2.22,2.25,2a51.92,51.92,0,0,0,11.33-2.82c1.2-.48,2.75-.63,3.38-1.78s-.77-1.94-1.1-3a3,3,0,0,1,1.32-3.88,2.88,2.88,0,0,1,4,.79,16.75,16.75,0,0,1,1.16,1.8c.29.43.56,1,1.2.68a2.52,2.52,0,0,0,1.18-1c.31-.65-.43-.82-.81-1.11-7.5-5.49-9.21-13.39-4.59-21.44,6.26-10.88,12.57-21.74,18.82-32.63.44-.78,1.59-1.66.74-2.54-.66-.68-1.46.45-2.23.7-.24.08-.47.24-.72.31-1.61.43-3,.16-3.85-1.41a3,3,0,0,1,.92-4,5.84,5.84,0,0,1,1.31-.84c1.3-.59,1.34-1.32.52-2.42A49.1,49.1,0,0,0,130,89.08c-1-.77-1.82-2-3.06-2s-1.32,1.6-2,2.39a3.16,3.16,0,0,1-4.2.77,3,3,0,0,1-1.13-3.94,9.19,9.19,0,0,1,.82-1.55c.6-.92.41-1.53-.61-2a45.51,45.51,0,0,0-14.45-3.86c-1.34-.12-1.73.41-1.69,1.65.05,1.69.06,3.38,0,5.07-.1,2.17-1.36,3.5-3.17,3.51s-3.09-1.33-3.19-3.48a46.73,46.73,0,0,1,0-4.88C97.27,79.26,96.75,78.56,95.52,78.91Zm51.1,96.63c0,4.36,0,8.72,0,13.08,0,3.89,1.56,5.46,5.44,5.48,5.41,0,10.81,0,16.21,0,4.65,0,6.17-1.54,6.18-6.22,0-8.46,0-16.93,0-25.39,0-3.16,1-4.19,4.2-4.28,2.47-.07,5,0,7.42-.1a8.64,8.64,0,0,0,8-7.1c.57-2.82-.37-5.23-1.74-7.59q-11.74-20.28-23.45-40.58c-4.26-7.37-12.44-7.39-16.74,0-4.17,7.14-8.28,14.31-12.41,21.47-3.91,6.76-7.89,13.48-11.69,20.31-3.52,6.32.46,13.29,7.63,13.55,2.21.08,4.43,0,6.64.06,3.28.1,4.3,1.16,4.31,4.42C146.63,166.94,146.62,171.24,146.62,175.54Z" style="fill:#3588ff"/><path d="M88.54,135.26c-3.9,0-7.8.09-11.7,0a9.53,9.53,0,0,1-2.37-18.71,21.75,21.75,0,0,1,5.81-.47c2.73,0,5.46-.06,8.19,0,1.72,0,2.55-.54,2.42-2.37-.1-1.55,0-3.12,0-4.68a9.5,9.5,0,0,1,19,0c.09,5.53.06,11,0,16.58a9.49,9.49,0,0,1-9.46,9.66C96.48,135.34,92.51,135.26,88.54,135.26Zm15-17.71c0-2.61.06-5.21,0-7.81-.06-2.26-1.2-3.46-3.1-3.47s-3.11,1.18-3.14,3.43q-.09,7.8,0,15.61c0,2.27,1.2,3.47,3.1,3.48s3.07-1.18,3.14-3.44C103.58,122.75,103.53,120.15,103.53,117.55Zm-20.3,11.26v0c2.09,0,4.17,0,6.25,0,.7,0,1.55.08,1.52-1,0-1.37-.09-2.73-.15-4.09a1.23,1.23,0,0,0-1.39-1.29c-4.17,0-8.33-.07-12.49,0a3.08,3.08,0,0,0-3,3.39c.09,1.76,1.24,2.86,3.23,2.93S81.22,128.81,83.23,128.81Z" style="fill:#3588ff"/></svg>