<svg id="Layer_1" data-name="Layer 1" xmlns="http://www.w3.org/2000/svg" viewBox="0 0 200 200"><path d="M102.92.39C107.66,2,111,5,111.83,10a38.93,38.93,0,0,1,.14,8.57c-.12,2,.53,2.82,2.55,3.13a86.31,86.31,0,0,1,44.42,20.73c16.25,14.21,26.41,32,29.87,53.36,3.58,22.19-.27,43.1-12.26,62.14-14.42,22.9-35.1,36.81-61.84,41.45-2.23.38-4.48.67-6.72,1H92.4a121.29,121.29,0,0,1-17-3.27,89.28,89.28,0,0,1-48.16-34,85.8,85.8,0,0,1-15.88-38.82C8.11,101.8,12.47,80.82,24.76,61.6c1.42-2.22,3.65-2.81,5.7-1.62s2.68,3.61,1.23,5.94a79.69,79.69,0,0,0-9.55,20.67c-8.07,29-2.65,55.2,17,78A77.35,77.35,0,0,0,89,191.51c24.51,3.25,46.38-3.29,65.06-19.61a78.48,78.48,0,0,0,27-50.09c3.23-24.33-3.17-46.09-19.16-64.75a78.62,78.62,0,0,0-47.3-27A80.23,80.23,0,0,0,57.63,40.73c-.78.47-1.53,1-2.34,1.4a4.08,4.08,0,1,1-4.07-7.08,86.92,86.92,0,0,1,13-7,88.83,88.83,0,0,1,22.39-6.49c1.44-.22,1.82-.81,1.77-2.15-.09-2.28,0-4.56,0-6.84,0-5.75,2.81-9.74,8.21-11.76l.9-.37ZM96.48,15.66h0c0,1.1,0,2.2,0,3.3s.37,1.67,1.57,1.63c1.55-.06,3.1,0,4.65,0,.89,0,1.31-.38,1.3-1.28,0-2.4.09-4.8-.08-7.19a3.78,3.78,0,0,0-3.61-3.67,3.88,3.88,0,0,0-3.76,3.73A34,34,0,0,0,96.48,15.66Z" style="fill:#3588ff"/><path d="M174.4,110.62c.26,40.73-33.5,74.4-74.28,74.34s-74.23-33.72-74.2-74.49S59.47,36,100.47,36.13C141.06,36.24,174.75,69.9,174.4,110.62Zm-8.07,0c-.34-36.38-28.8-66.11-65.94-66.26A66.17,66.17,0,0,0,100,176.71C136.3,176.89,165.79,148,166.33,110.64Z" style="fill:#3588ff"/><path d="M39.59,53.91a4.13,4.13,0,1,1,4.07-4.19A4.38,4.38,0,0,1,39.59,53.91Z" style="fill:#3588ff"/><path d="M69.53,114.59c-5,0-10,0-15,0-2.78,0-4.67-1.75-4.62-4.17s2-3.9,4.69-3.9c8.12,0,16.24,0,24.36,0,.56,0,1.31.3,1.63-.28s-.33-1.06-.64-1.52q-8.2-12.47-16.45-24.92a5.52,5.52,0,0,1-1.22-3.42,4,4,0,0,1,6.34-3.11c2.45,1.48,4.8,3.11,7.19,4.69q9.26,6.15,18.52,12.3c.47.31.94,1,1.51.67s.31-1.05.32-1.6q0-12.4,0-24.81a4,4,0,0,1,2.72-4.07,3.83,3.83,0,0,1,4.39,1.22,4.61,4.61,0,0,1,1,3.47c0,9.77,0,19.54,0,29.3,0,1.68.36,2.86,1.92,3.65a15.64,15.64,0,0,1,6.73,6.83,3,3,0,0,0,3,1.64q15.1-.07,30.22,0c3.51,0,5.45,3.07,3.87,6a4.16,4.16,0,0,1-4.1,2.09c-7.79,0-15.59,0-23.39,0a11.42,11.42,0,0,0-1.17,0c-.5,0-1.14-.24-1.45.26s.25,1,.51,1.36c.87,1.37,1.79,2.72,2.68,4.07q7,10.67,14.08,21.35c1.56,2.38,1.33,4.66-.55,6.09-1.53,1.17-3.31,1.1-5.4-.28q-12.21-8.05-24.39-16.15c-.38-.25-.77-.49-1.14-.76-1.14-.86-1.4-.34-1.39.83,0,3.52,0,7,0,10.55,0,4.81,0,9.63,0,14.45,0,2.69-1.69,4.55-4,4.55s-4-1.86-4-4.56c0-9.89,0-19.79,0-29.69,0-1.67-.35-2.86-1.92-3.64a16.08,16.08,0,0,1-6.85-7,2.65,2.65,0,0,0-2.69-1.46C79.67,114.63,74.6,114.59,69.53,114.59ZM82.05,92l-.31.28c.15.28.27.57.44.83q6.76,10.26,13.52,20.51a6.15,6.15,0,0,0,1.86,1.7q9.75,6.45,19.5,12.9c.44.29.82.85,1.69.58-2.86-4.36-5.9-8.5-8.42-12.94-3.69-6.49-8.45-11.76-15.12-15.21a27,27,0,0,1-2.44-1.61Q87.42,95.54,82.05,92Z" style="fill:#3588ff"/></svg>