<svg id="Layer_1" data-name="Layer 1" xmlns="http://www.w3.org/2000/svg" viewBox="0 0 200 200"><path d="M162.71,110.63c0,6.25,0,12.5,0,18.75,0,1.55.37,2.29,2,2.6,13.16,2.41,23.82,14.35,22.94,30-.72,12.87-11.57,24.48-25,25.89a27.27,27.27,0,0,1-24.29-9.39c-1.19-1.34-2.05-1.51-3.58-.61-10.47,6.16-21,12.2-31.49,18.37a5.37,5.37,0,0,1-6.14,0c-10.24-6.05-20.56-12-30.83-18-1.14-.66-1.92-.89-3,.2A5.48,5.48,0,0,1,57,179.6c-2.34-.95-5.77,1-6.25,3.55A5.75,5.75,0,0,1,45,188q-4,.08-8,0a5.72,5.72,0,0,1-5.88-5.14c-.34-2.05-4-4.16-5.94-3.42-3.47,1.33-6.05.48-8-2.66-1.23-2-2.47-4-3.6-6-1.59-2.88-1-5.55,1.53-7.63,1.81-1.48,1.77-5.24-.07-6.75a5.57,5.57,0,0,1-1.51-7.49c1.26-2.28,2.6-4.52,4-6.7a5.8,5.8,0,0,1,7.34-2.24c2.37.9,5.78-1,6.26-3.55a5.54,5.54,0,0,1,4.76-4.77c1.69-.15,1.79-1,1.78-2.29,0-12.3,0-24.61,0-36.91a5.1,5.1,0,0,1,2.85-5Q69.11,70.88,97.66,54.23a4.59,4.59,0,0,1,5.11,0q28.65,16.66,57.35,33.26a4.7,4.7,0,0,1,2.63,4.57C162.64,98.26,162.71,104.45,162.71,110.63ZM47.37,91.17c.86.6,1.47,1,2.11,1.45q24.27,16,48.51,31.95c1.7,1.13,2.84,1,4.49,0q24.38-16.14,48.85-32.14c1.8-1.18,1.8-1.17-.07-2.26-16.18-9.39-32.38-18.75-48.52-28.21a4.37,4.37,0,0,0-5.11,0C82.94,70.55,68.2,79.05,53.48,87.59,51.52,88.72,49.58,89.87,47.37,91.17ZM96.94,159.9q0-13.17,0-26.35A2.64,2.64,0,0,0,95.68,131Q70.73,114.64,45.83,98.23c-1.11-.73-1.66-.88-1.66.8q.06,15.42,0,30.84c0,1.13.37,1.55,1.54,1.7a5.69,5.69,0,0,1,5,5c.41,2.33,3.95,4.3,6.19,3.44a5.79,5.79,0,0,1,7.35,2.17q2.19,3.35,4.1,6.86a5.52,5.52,0,0,1-1.66,7.44c-1.77,1.4-1.78,5.27,0,6.65,2.38,1.87,3.11,4.32,1.85,7.08-.57,1.24-.18,1.68.82,2.26q12.93,7.43,25.79,15c1.59.93,1.79.4,1.79-1.13C96.92,177.47,96.94,168.68,96.94,159.9Zm6.51-.12V186c0,2.41,0,2.41,2.16,1.17,8.67-5,17.31-10.06,26-15,1.49-.85,1.71-1.6,1.16-3.21A28.13,28.13,0,0,1,154.06,132c1.58-.3,2.18-.84,2.17-2.5-.07-10,0-20.05,0-30.07,0-.56.27-1.3-.26-1.65s-1.06.29-1.52.59q-24.61,16.15-49.24,32.3a3.47,3.47,0,0,0-1.75,3.34C103.49,142.59,103.45,151.19,103.45,159.78Zm55.93,21.7c12-.34,21.55-9,21.65-21.6a21.21,21.21,0,0,0-21.61-21.74c-12,0-21.36,9.09-21.6,21.61C137.6,171.51,147.55,181.35,159.38,181.48ZM23.16,172.92a3.67,3.67,0,0,1,.51-.19c3.58-1,11.2,1.88,13.17,5.07a4.63,4.63,0,0,1,.7,1.8c.16,1.6,1,2.07,2.5,1.92a13.07,13.07,0,0,1,2.34,0c1.13.1,1.58-.45,1.86-1.5,1-3.91,8.63-8.92,12.42-7.67,2.58.85,3.3-.29,4.16-2.05a6.06,6.06,0,0,1,.62-1c.6-.77.5-1.31-.36-1.89a5.52,5.52,0,0,1-2.38-5.24c.08-1.62.07-3.25,0-4.88a5.56,5.56,0,0,1,2.41-5.22c.48-.33,1.06-.62.59-1.38-.75-1.22-1.48-2.44-2.23-3.67-.29-.48-.69-.49-1.17-.27a6.44,6.44,0,0,1-7-.76c-2-1.46-4.65-1.82-6.13-4a4,4,0,0,1-.8-1.75c-.15-1.86-1.13-2.44-2.86-2.22a10.93,10.93,0,0,1-2.14,0,1.44,1.44,0,0,0-1.73,1.4c-.36,2.52-2,4-4.17,5a20.9,20.9,0,0,0-3.24,1.8,6.51,6.51,0,0,1-6.29.75c-.46-.17-1-.68-1.4-.09A21.07,21.07,0,0,0,20.1,151c-.36,1,1.12,1.22,1.69,1.87,2.08,2.37,2.16,11.85-.27,13.8-1.73,1.38-1.53,2.33-.39,3.74a19.71,19.71,0,0,1,1.12,1.82C22.45,172.59,22.62,173,23.16,172.92Z" style="fill:#3588ff"/><path d="M35,17.65a19.84,19.84,0,0,1,1.95.69c6.21,2.8,12.41,5.63,18.63,8.43,1.5.68,2.77,1.57,2.87,3.35s-1.08,2.69-2.4,3.5c-1.72,1.06-3.36,2.25-5.14,3.18-1.45.77-1.57,1.47-.69,2.85,4.8,7.57,9.48,15.23,14.29,22.8.94,1.47.94,2.28-.66,3.19-4.62,2.65-3.43,2.86-6.12-1.41q-6.61-10.46-13.09-21c-.81-1.34-1.46-1.7-2.84-.7-1.73,1.26-3.6,2.31-5.44,3.42-3.05,1.84-5.72.42-5.67-3.11q.15-10.24.51-20.47C31.33,19.16,32.61,17.6,35,17.65Zm2.67,19.58c3.27-2,6.33-3.94,9.37-5.88.84-.53.37-.92-.26-1.21-2.54-1.15-5.08-2.31-7.62-3.45-.6-.27-1.25-.37-1.25.54C37.93,30.45,37.28,33.66,37.69,37.23Z" style="fill:#3588ff"/><path d="M169.69,39.39c0,1.3.06,2.6,0,3.9-.17,3-2.67,4.35-5.24,2.89-2-1.16-4-2.38-5.94-3.72-1.3-.93-1.93-.62-2.71.65-4.62,7.53-9.33,15-14,22.52-1.44,2.31-1.44,2.33-3.65,1-4.07-2.53-3.68-1.76-1.35-5.52,4.45-7.18,8.9-14.36,13.43-21.49.85-1.33.65-2-.67-2.71-2-1.11-3.89-2.35-5.77-3.62-2.68-1.82-2.54-4.76.39-6.13q9.88-4.62,19.86-9c2.64-1.17,4.54.06,5,3a62.64,62.64,0,0,1,.29,8c.05,3.44,0,6.88,0,10.32Zm-6.94-2.15c.3-3.57-.29-6.72-.27-9.88,0-.8-.43-1-1.15-.71l-9.05,4.07Z" style="fill:#3588ff"/><path d="M103.44,38c0,2.61,0,5.21,0,7.81,0,1.15-.42,1.65-1.6,1.64-6-.07-4.82.65-4.91-4.55q-.11-6.15,0-12.3c0-1.43-.43-2-1.89-1.93-2.34.09-4.68.06-7,0-3.07-.07-4.6-2.69-2.93-5.26Q91,14.2,97.22,5.18c1.63-2.4,4.32-2.41,6,0q6.15,9,12.1,18.19c1.67,2.59.15,5.2-2.92,5.27-2.4.05-4.81.06-7.21,0-1.27,0-1.74.45-1.71,1.71.07,2.54,0,5.08,0,7.61Zm-3.19-15.83h4.67c.91,0,1.48-.16.79-1.2q-2.38-3.55-4.75-7.14c-.6-.91-1.08-.68-1.59.1-1.54,2.33-3.08,4.66-4.64,7-.59.88-.45,1.29.66,1.27C97,22.11,98.63,22.12,100.25,22.13Z" style="fill:#3588ff"/><path d="M158.9,163a23.48,23.48,0,0,1-4.66-.26,9.94,9.94,0,0,1-7.39-9,9.57,9.57,0,0,1,7.14-9.34,2.65,2.65,0,0,0,2.36-2.42c.45-2.25,2.7-.8,4.12-1.07.81-.15,2.25-.47,2.17,1.1s.85,2,2.15,2.36a9.63,9.63,0,0,1,7.06,7.11c.42,1.46.07,2.28-1.63,2.16a23.71,23.71,0,0,0-2.92,0c-1.09.07-1.92-.19-2.28-1.33a1.15,1.15,0,0,0-.21-.33c-1.44-1.91-9-2.23-10.55-.42a2.62,2.62,0,0,0-.59,2.88,3,3,0,0,0,2.83,2c1.95,0,3.9,0,5.84,0A9.94,9.94,0,0,1,172,164.6a9.55,9.55,0,0,1-6.88,10.45,3.2,3.2,0,0,0-2.61,2.66c-.62,2.07-3,.58-4.63.91-.76.15-1.73,0-1.61-1.12.18-1.68-.83-2-2.13-2.36a9.63,9.63,0,0,1-7.06-7.11c-.43-1.45-.07-2.27,1.62-2.16a22,22,0,0,0,2.93,0,1.91,1.91,0,0,1,2.28,1.33,1.38,1.38,0,0,0,.2.33c1.45,1.91,9,2.23,10.55.42a2.64,2.64,0,0,0,.6-2.89,2.94,2.94,0,0,0-2.64-2C161.37,163,160.13,163,158.9,163Z" style="fill:#3588ff"/><path d="M40.9,147.28a12.48,12.48,0,0,1,.07,25,12.48,12.48,0,0,1-.07-25Zm5.75,12.55a5.72,5.72,0,1,0-5.78,5.66A5.82,5.82,0,0,0,46.65,159.83Z" style="fill:#3588ff"/></svg>